<svg xmlns="http://www.w3.org/2000/svg" viewBox="0 0 64 64" fill="none">
  <g stroke="#C6B49A" stroke-width="1.1" stroke-linecap="round" stroke-linejoin="round">
    <path d="M3 22V3H22" />
    <path d="M9 22V9H22" />
    <path d="M3 30C7 27 11 26 16 26C23 26 28 30 30 37" />
    <path d="M8 33C11 31 14 30 18 30C23 30 26 33 28 38" />

    <path d="M22 3C30 4 36 8 39 14C42 20 41 27 36 33" />
    <path d="M26 8C31 9 35 12 37 17C39 22 38 26 35 30" />

    <path d="M14 14C17 10 21 8 26 8" />
    <path d="M12 18C16 14 21 12 27 12" />

    <path d="M6 39C10 44 16 48 23 50" />
    <path d="M12 39C15 43 19 45 24 47" />
  </g>
</svg>